M48
; DRILL file {KiCad 9.0.4} date 2025-10-09T00:12:16+0200
; FORMAT={-:-/ absolute / metric / decimal}
; #@! TF.CreationDate,2025-10-09T00:12:16+02:00
; #@! TF.GenerationSoftware,Kicad,Pcbnew,9.0.4
; #@! TF.FileFunction,Plated,1,2,PTH
FMAT,2
METRIC
; #@! TA.AperFunction,Plated,PTH,ViaDrill
T1C0.300
; #@! TA.AperFunction,Plated,PTH,ComponentDrill
T2C0.750
; #@! TA.AperFunction,Plated,PTH,ComponentDrill
T3C0.800
; #@! TA.AperFunction,Plated,PTH,ComponentDrill
T4C0.900
; #@! TA.AperFunction,Plated,PTH,ComponentDrill
T5C1.000
; #@! TA.AperFunction,Plated,PTH,ComponentDrill
T6C1.100
; #@! TA.AperFunction,Plated,PTH,ComponentDrill
T7C2.000
; #@! TA.AperFunction,Plated,PTH,ComponentDrill
T8C3.250
%
G90
G05
T1
X126.0Y-80.5
X126.0Y-83.5
X135.0Y-117.0
X136.0Y-131.5
X136.0Y-135.5
X137.0Y-78.0
X137.0Y-119.5
X139.5Y-77.5
X140.0Y-82.0
X141.5Y-96.0
X141.5Y-132.5
X142.0Y-84.5
X142.5Y-77.0
X142.5Y-106.0
X143.0Y-79.5
X143.0Y-94.0
X145.0Y-96.0
X146.0Y-79.5
X146.0Y-86.0
X147.0Y-78.0
X147.0Y-106.0
X149.0Y-82.0
X150.0Y-80.5
X151.5Y-96.0
X152.5Y-106.5
X166.0Y-94.0
X169.0Y-76.5
X171.5Y-87.0
X173.0Y-99.0
X174.0Y-95.5
X174.0Y-105.5
X174.0Y-118.0
X175.0Y-99.0
X177.0Y-95.0
X180.5Y-76.0
X180.5Y-94.0
X183.0Y-76.0
X183.0Y-92.0
T2
X131.77Y-121.14
X133.04Y-121.14
X134.31Y-121.14
X139.0Y-121.0
X140.27Y-121.0
X141.54Y-121.0
T3
X141.69Y-142.0
X141.69Y-148.0
X144.0Y-164.0
X146.54Y-164.0
X149.08Y-164.0
X149.31Y-142.0
X149.31Y-148.0
X169.19Y-121.19
X169.19Y-128.81
X169.38Y-144.38
X169.38Y-152.0
X171.73Y-121.19
X171.73Y-128.81
X171.92Y-144.38
X171.92Y-152.0
X174.27Y-121.19
X174.27Y-128.81
X174.46Y-144.38
X174.46Y-152.0
X174.5Y-156.5
X174.5Y-159.0
X176.81Y-121.19
X176.81Y-128.81
X177.0Y-144.38
X177.0Y-152.0
X184.5Y-104.5
X184.5Y-114.5
X184.5Y-125.0
X187.0Y-104.5
X187.0Y-114.5
X187.0Y-125.0
T4
X129.525Y-74.201
X129.525Y-89.415
X130.3Y-157.055
X130.3Y-159.595
X130.3Y-162.135
X130.3Y-164.675
X132.065Y-74.201
X132.065Y-74.201
X132.065Y-89.415
X132.065Y-89.415
X132.84Y-158.325
X132.84Y-160.865
X132.84Y-163.405
X132.84Y-165.945
X134.605Y-74.201
X134.605Y-89.415
X137.145Y-74.201
X137.145Y-89.415
X139.685Y-74.201
X139.685Y-89.415
X139.685Y-89.415
X142.225Y-74.201
X142.225Y-89.415
X144.765Y-74.201
X144.765Y-74.201
X144.765Y-89.415
X147.305Y-74.201
X147.305Y-74.201
X147.305Y-89.415
X149.845Y-74.201
X149.845Y-89.415
X149.845Y-89.415
X152.385Y-74.201
X152.385Y-74.201
X152.385Y-89.415
X154.925Y-74.201
X154.925Y-89.415
X157.465Y-74.201
X157.465Y-89.415
X157.465Y-89.415
X160.005Y-74.201
X160.005Y-74.201
X160.005Y-89.415
X160.005Y-89.415
X162.545Y-74.201
X162.545Y-74.201
X162.545Y-89.415
X162.545Y-89.415
X165.085Y-74.201
X165.085Y-74.201
X165.085Y-89.415
X167.625Y-74.201
X167.625Y-89.415
X170.165Y-74.201
X170.165Y-89.415
X172.705Y-74.201
X172.705Y-89.415
X174.0Y-77.96
X174.0Y-80.5
X174.0Y-80.5
X174.0Y-83.04
X174.0Y-85.58
X175.245Y-74.201
X175.245Y-89.415
X177.785Y-74.201
X177.785Y-89.415
X177.785Y-89.415
T5
X120.5Y-74.26
X120.5Y-76.8
X120.5Y-79.34
X120.5Y-81.88
X120.5Y-84.42
X120.5Y-86.96
X120.5Y-89.5
X120.5Y-92.04
X121.5Y-98.9
X121.5Y-106.5
X121.632Y-145.0
X122.0Y-112.868
X122.0Y-117.868
X126.632Y-145.0
X150.566Y-103.015
X152.0Y-109.5
X152.0Y-124.0
X153.106Y-103.015
X154.5Y-109.5
X155.646Y-103.015
X157.0Y-109.5
X157.0Y-124.0
X158.186Y-103.015
T6
X143.42Y-156.055
X145.96Y-156.055
X148.5Y-156.055
T8
X123.95Y-155.785
X123.95Y-167.215
T5
G00X121.0Y-129.542
M15
G01X121.0Y-131.542
M16
G05
G00X123.0Y-135.243
M15
G01X125.0Y-135.243
M16
G05
G00X127.0Y-129.542
M15
G01X127.0Y-131.542
M16
G05
T7
G00X148.9Y-116.45
M15
G01X148.9Y-117.55
M16
G05
G00X160.1Y-116.45
M15
G01X160.1Y-117.55
M16
G05
M30
