<?xml version="1.0" standalone="no"?>
 <!DOCTYPE svg PUBLIC "-//W3C//DTD SVG 1.1//EN" 
 "http://www.w3.org/Graphics/SVG/1.1/DTD/svg11.dtd"> 
<svg
  xmlns:svg="http://www.w3.org/2000/svg"
  xmlns="http://www.w3.org/2000/svg"
  xmlns:xlink="http://www.w3.org/1999/xlink"
  version="1.1"
  width="297.0022mm" height="210.0072mm" viewBox="0.0000 0.0000 297.0022 210.0072">
<title>SVG Image created as GitKop-B_Mask.svg date 2026/01/08 21:32:21 </title>
  <desc>Image generated by PCBNEW </desc>
<g style="fill:#000000; fill-opacity:1.0000;stroke:#000000; stroke-opacity:1.0000;
stroke-linecap:round; stroke-linejoin:round;"
 transform="translate(0 0) scale(1 1)">
<path style="fill:#02FFEE; fill-opacity:0.4000; stroke:none;fill-rule:evenodd;"
d="M 168.6400,130.0100
168.5443,129.9910
168.4632,129.9368
168.4090,129.8557
168.3900,129.7600
168.3900,127.8600
168.4090,127.7643
168.4632,127.6832
168.5443,127.6290
168.6400,127.6100
169.7400,127.6100
169.8357,127.6290
169.9168,127.6832
169.9710,127.7643
169.9900,127.8600
169.9900,129.7600
169.9710,129.8557
169.9168,129.9368
169.8357,129.9910
169.7400,130.0100
Z" /> 
</g>
<g style="fill:none; 
stroke:#02FFEE; stroke-width:1.6000; stroke-opacity:1; 
stroke-linecap:round; stroke-linejoin:round;">
<path d="M171.7300 129.2100
L171.7300 128.4100
" />
<path d="M174.2700 129.2100
L174.2700 128.4100
" />
<path d="M176.8100 129.2100
L176.8100 128.4100
" />
<path d="M176.8100 121.5900
L176.8100 120.7900
" />
<path d="M174.2700 121.5900
L174.2700 120.7900
" />
<path d="M171.7300 121.5900
L171.7300 120.7900
" />
<path d="M169.1900 121.5900
L169.1900 120.7900
" />
<path style="fill:#02FFEE; fill-opacity:0.4000; stroke:none;fill-rule:evenodd;"
d="M 155.9200,146.7000
155.9200,148.3000
154.3200,148.3000
154.3200,146.7000
Z" /> 
</g>
<g style="fill:#02FFEE; fill-opacity:0.4000; stroke:none;">
<circle cx="147.5000" cy="147.5000" r="0.8000" /> 
<path style="fill:#02FFEE; fill-opacity:0.4000; stroke:none;fill-rule:evenodd;"
d="M 157.3356,102.1646
159.0356,102.1646
159.0356,103.8646
157.3356,103.8646
Z" /> 
<circle cx="155.6456" cy="103.0146" r="0.8500" /> 
</g>
<g style="fill:#02FFEE; fill-opacity:0.4000; stroke:none;">
<circle cx="153.1056" cy="103.0146" r="0.8500" /> 
</g>
<g style="fill:#02FFEE; fill-opacity:0.4000; stroke:none;">
<circle cx="150.5656" cy="103.0146" r="0.8500" /> 
<path style="fill:#02FFEE; fill-opacity:0.4000; stroke:none;fill-rule:evenodd;"
d="M 138.4750,121.7500
138.4750,120.2500
139.5250,120.2500
139.5250,121.7500
Z" /> 
</g>
<g style="fill:none; 
stroke:#02FFEE; stroke-width:1.0500; stroke-opacity:1; 
stroke-linecap:round; stroke-linejoin:round;">
<path d="M140.2700 120.7750
L140.2700 121.2250
" />
<path d="M141.5400 120.7750
L141.5400 121.2250
" />
<path style="fill:#02FFEE; fill-opacity:0.4000; stroke:none;fill-rule:evenodd;"
d="M 137.4500,132.8000
137.3543,132.7810
137.2732,132.7268
137.2190,132.6457
137.2000,132.5500
137.2000,131.4500
137.2190,131.3543
137.2732,131.2732
137.3543,131.2190
137.4500,131.2000
138.5500,131.2000
138.6457,131.2190
138.7268,131.2732
138.7810,131.3543
138.8000,131.4500
138.8000,132.5500
138.7810,132.6457
138.7268,132.7268
138.6457,132.7810
138.5500,132.8000
Z" /> 
</g>
<g style="fill:#02FFEE; fill-opacity:0.4000; stroke:none;">
<circle cx="138.0000" cy="129.5000" r="0.8000" /> 
<path style="fill:#02FFEE; fill-opacity:0.4000; stroke:none;fill-rule:evenodd;"
d="M 183.7000,103.9500
183.7190,103.8543
183.7732,103.7732
183.8543,103.7190
183.9500,103.7000
185.0500,103.7000
185.1457,103.7190
185.2268,103.7732
185.2810,103.8543
185.3000,103.9500
185.3000,105.0500
185.2810,105.1457
185.2268,105.2268
185.1457,105.2810
185.0500,105.3000
183.9500,105.3000
183.8543,105.2810
183.7732,105.2268
183.7190,105.1457
183.7000,105.0500
Z" /> 
</g>
<g style="fill:#02FFEE; fill-opacity:0.4000; stroke:none;">
<circle cx="187.0000" cy="104.5000" r="0.8000" /> 
<path style="fill:#02FFEE; fill-opacity:0.4000; stroke:none;fill-rule:evenodd;"
d="M 128.6746,90.2654
128.6746,88.5654
130.3746,88.5654
130.3746,90.2654
Z" /> 
</g>
<g style="fill:#02FFEE; fill-opacity:0.4000; stroke:none;">
<circle cx="132.0646" cy="89.4154" r="0.8500" /> 
</g>
<g style="fill:#02FFEE; fill-opacity:0.4000; stroke:none;">
<circle cx="132.0646" cy="89.4154" r="0.8500" /> 
</g>
<g style="fill:#02FFEE; fill-opacity:0.4000; stroke:none;">
<circle cx="134.6046" cy="89.4154" r="0.8500" /> 
</g>
<g style="fill:#02FFEE; fill-opacity:0.4000; stroke:none;">
<circle cx="137.1446" cy="89.4154" r="0.8500" /> 
</g>
<g style="fill:#02FFEE; fill-opacity:0.4000; stroke:none;">
<circle cx="139.6846" cy="89.4154" r="0.8500" /> 
</g>
<g style="fill:#02FFEE; fill-opacity:0.4000; stroke:none;">
<circle cx="139.6846" cy="89.4154" r="0.8500" /> 
</g>
<g style="fill:#02FFEE; fill-opacity:0.4000; stroke:none;">
<circle cx="142.2246" cy="89.4154" r="0.8500" /> 
</g>
<g style="fill:#02FFEE; fill-opacity:0.4000; stroke:none;">
<circle cx="144.7646" cy="89.4154" r="0.8500" /> 
</g>
<g style="fill:#02FFEE; fill-opacity:0.4000; stroke:none;">
<circle cx="147.3046" cy="89.4154" r="0.8500" /> 
</g>
<g style="fill:#02FFEE; fill-opacity:0.4000; stroke:none;">
<circle cx="149.8446" cy="89.4154" r="0.8500" /> 
</g>
<g style="fill:#02FFEE; fill-opacity:0.4000; stroke:none;">
<circle cx="149.8446" cy="89.4154" r="0.8500" /> 
</g>
<g style="fill:#02FFEE; fill-opacity:0.4000; stroke:none;">
<circle cx="152.3846" cy="89.4154" r="0.8500" /> 
</g>
<g style="fill:#02FFEE; fill-opacity:0.4000; stroke:none;">
<circle cx="154.9246" cy="89.4154" r="0.8500" /> 
</g>
<g style="fill:#02FFEE; fill-opacity:0.4000; stroke:none;">
<circle cx="157.4646" cy="89.4154" r="0.8500" /> 
</g>
<g style="fill:#02FFEE; fill-opacity:0.4000; stroke:none;">
<circle cx="157.4646" cy="89.4154" r="0.8500" /> 
</g>
<g style="fill:#02FFEE; fill-opacity:0.4000; stroke:none;">
<circle cx="160.0046" cy="89.4154" r="0.8500" /> 
</g>
<g style="fill:#02FFEE; fill-opacity:0.4000; stroke:none;">
<circle cx="160.0046" cy="89.4154" r="0.8500" /> 
</g>
<g style="fill:#02FFEE; fill-opacity:0.4000; stroke:none;">
<circle cx="162.5446" cy="89.4154" r="0.8500" /> 
</g>
<g style="fill:#02FFEE; fill-opacity:0.4000; stroke:none;">
<circle cx="162.5446" cy="89.4154" r="0.8500" /> 
</g>
<g style="fill:#02FFEE; fill-opacity:0.4000; stroke:none;">
<circle cx="165.0846" cy="89.4154" r="0.8500" /> 
</g>
<g style="fill:#02FFEE; fill-opacity:0.4000; stroke:none;">
<circle cx="167.6246" cy="89.4154" r="0.8500" /> 
</g>
<g style="fill:#02FFEE; fill-opacity:0.4000; stroke:none;">
<circle cx="170.1646" cy="89.4154" r="0.8500" /> 
</g>
<g style="fill:#02FFEE; fill-opacity:0.4000; stroke:none;">
<circle cx="172.7046" cy="89.4154" r="0.8500" /> 
</g>
<g style="fill:#02FFEE; fill-opacity:0.4000; stroke:none;">
<circle cx="175.2446" cy="89.4154" r="0.8500" /> 
</g>
<g style="fill:#02FFEE; fill-opacity:0.4000; stroke:none;">
<circle cx="177.7846" cy="89.4154" r="0.8500" /> 
</g>
<g style="fill:#02FFEE; fill-opacity:0.4000; stroke:none;">
<circle cx="177.7846" cy="89.4154" r="0.8500" /> 
</g>
<g style="fill:#02FFEE; fill-opacity:0.4000; stroke:none;">
<circle cx="177.7846" cy="74.2008" r="0.8500" /> 
</g>
<g style="fill:#02FFEE; fill-opacity:0.4000; stroke:none;">
<circle cx="175.2446" cy="74.2008" r="0.8500" /> 
</g>
<g style="fill:#02FFEE; fill-opacity:0.4000; stroke:none;">
<circle cx="172.7046" cy="74.2008" r="0.8500" /> 
</g>
<g style="fill:#02FFEE; fill-opacity:0.4000; stroke:none;">
<circle cx="170.1646" cy="74.2008" r="0.8500" /> 
</g>
<g style="fill:#02FFEE; fill-opacity:0.4000; stroke:none;">
<circle cx="167.6246" cy="74.2008" r="0.8500" /> 
</g>
<g style="fill:#02FFEE; fill-opacity:0.4000; stroke:none;">
<circle cx="165.0846" cy="74.2008" r="0.8500" /> 
</g>
<g style="fill:#02FFEE; fill-opacity:0.4000; stroke:none;">
<circle cx="165.0846" cy="74.2008" r="0.8500" /> 
</g>
<g style="fill:#02FFEE; fill-opacity:0.4000; stroke:none;">
<circle cx="162.5446" cy="74.2008" r="0.8500" /> 
</g>
<g style="fill:#02FFEE; fill-opacity:0.4000; stroke:none;">
<circle cx="162.5446" cy="74.2008" r="0.8500" /> 
</g>
<g style="fill:#02FFEE; fill-opacity:0.4000; stroke:none;">
<circle cx="160.0046" cy="74.2008" r="0.8500" /> 
</g>
<g style="fill:#02FFEE; fill-opacity:0.4000; stroke:none;">
<circle cx="160.0046" cy="74.2008" r="0.8500" /> 
</g>
<g style="fill:#02FFEE; fill-opacity:0.4000; stroke:none;">
<circle cx="157.4646" cy="74.2008" r="0.8500" /> 
</g>
<g style="fill:#02FFEE; fill-opacity:0.4000; stroke:none;">
<circle cx="154.9246" cy="74.2008" r="0.8500" /> 
</g>
<g style="fill:#02FFEE; fill-opacity:0.4000; stroke:none;">
<circle cx="152.3846" cy="74.2008" r="0.8500" /> 
</g>
<g style="fill:#02FFEE; fill-opacity:0.4000; stroke:none;">
<circle cx="152.3846" cy="74.2008" r="0.8500" /> 
</g>
<g style="fill:#02FFEE; fill-opacity:0.4000; stroke:none;">
<circle cx="149.8446" cy="74.2008" r="0.8500" /> 
</g>
<g style="fill:#02FFEE; fill-opacity:0.4000; stroke:none;">
<circle cx="147.3046" cy="74.2008" r="0.8500" /> 
</g>
<g style="fill:#02FFEE; fill-opacity:0.4000; stroke:none;">
<circle cx="147.3046" cy="74.2008" r="0.8500" /> 
</g>
<g style="fill:#02FFEE; fill-opacity:0.4000; stroke:none;">
<circle cx="144.7646" cy="74.2008" r="0.8500" /> 
</g>
<g style="fill:#02FFEE; fill-opacity:0.4000; stroke:none;">
<circle cx="144.7646" cy="74.2008" r="0.8500" /> 
</g>
<g style="fill:#02FFEE; fill-opacity:0.4000; stroke:none;">
<circle cx="142.2246" cy="74.2008" r="0.8500" /> 
</g>
<g style="fill:#02FFEE; fill-opacity:0.4000; stroke:none;">
<circle cx="139.6846" cy="74.2008" r="0.8500" /> 
</g>
<g style="fill:#02FFEE; fill-opacity:0.4000; stroke:none;">
<circle cx="137.1446" cy="74.2008" r="0.8500" /> 
</g>
<g style="fill:#02FFEE; fill-opacity:0.4000; stroke:none;">
<circle cx="134.6046" cy="74.2008" r="0.8500" /> 
</g>
<g style="fill:#02FFEE; fill-opacity:0.4000; stroke:none;">
<circle cx="132.0646" cy="74.2008" r="0.8500" /> 
</g>
<g style="fill:#02FFEE; fill-opacity:0.4000; stroke:none;">
<circle cx="132.0646" cy="74.2008" r="0.8500" /> 
<path style="fill:#02FFEE; fill-opacity:0.4000; stroke:none;fill-rule:evenodd;"
d="M 128.6746,75.0508
128.6746,73.3508
130.3746,73.3508
130.3746,75.0508
Z" /> 
<path style="fill:#02FFEE; fill-opacity:0.4000; stroke:none;fill-rule:evenodd;"
d="M 174.7500,86.3300
173.2500,86.3300
173.2500,84.8300
174.7500,84.8300
Z" /> 
</g>
<g style="fill:#02FFEE; fill-opacity:0.4000; stroke:none;">
<circle cx="174.0000" cy="83.0400" r="0.8500" /> 
</g>
<g style="fill:#02FFEE; fill-opacity:0.4000; stroke:none;">
<circle cx="174.0000" cy="80.5000" r="0.8500" /> 
</g>
<g style="fill:#02FFEE; fill-opacity:0.4000; stroke:none;">
<circle cx="174.0000" cy="80.5000" r="0.8500" /> 
</g>
<g style="fill:#02FFEE; fill-opacity:0.4000; stroke:none;">
<circle cx="174.0000" cy="77.9600" r="0.8500" /> 
<path style="fill:#02FFEE; fill-opacity:0.4000; stroke:none;fill-rule:evenodd;"
d="M 175.0500,155.7000
175.1457,155.7190
175.2268,155.7732
175.2810,155.8543
175.3000,155.9500
175.3000,157.0500
175.2810,157.1457
175.2268,157.2268
175.1457,157.2810
175.0500,157.3000
173.9500,157.3000
173.8543,157.2810
173.7732,157.2268
173.7190,157.1457
173.7000,157.0500
173.7000,155.9500
173.7190,155.8543
173.7732,155.7732
173.8543,155.7190
173.9500,155.7000
Z" /> 
</g>
<g style="fill:#02FFEE; fill-opacity:0.4000; stroke:none;">
<circle cx="174.5000" cy="159.0000" r="0.8000" /> 
<path style="fill:#02FFEE; fill-opacity:0.4000; stroke:none;fill-rule:evenodd;"
d="M 119.6500,75.1100
119.6500,73.4100
121.3500,73.4100
121.3500,75.1100
Z" /> 
</g>
<g style="fill:#02FFEE; fill-opacity:0.4000; stroke:none;">
<circle cx="120.5000" cy="76.8000" r="0.8500" /> 
</g>
<g style="fill:#02FFEE; fill-opacity:0.4000; stroke:none;">
<circle cx="120.5000" cy="79.3400" r="0.8500" /> 
</g>
<g style="fill:#02FFEE; fill-opacity:0.4000; stroke:none;">
<circle cx="120.5000" cy="81.8800" r="0.8500" /> 
</g>
<g style="fill:#02FFEE; fill-opacity:0.4000; stroke:none;">
<circle cx="120.5000" cy="84.4200" r="0.8500" /> 
</g>
<g style="fill:#02FFEE; fill-opacity:0.4000; stroke:none;">
<circle cx="120.5000" cy="86.9600" r="0.8500" /> 
</g>
<g style="fill:#02FFEE; fill-opacity:0.4000; stroke:none;">
<circle cx="120.5000" cy="89.5000" r="0.8500" /> 
</g>
<g style="fill:#02FFEE; fill-opacity:0.4000; stroke:none;">
<circle cx="120.5000" cy="92.0400" r="0.8500" /> 
<path style="fill:#02FFEE; fill-opacity:0.4000; stroke:none;fill-rule:evenodd;"
d="M 146.7000,142.3000
146.7000,140.7000
148.3000,140.7000
148.3000,142.3000
Z" /> 
</g>
<g style="fill:#02FFEE; fill-opacity:0.4000; stroke:none;">
<circle cx="155.1200" cy="141.5000" r="0.8000" /> 
<path style="fill:#02FFEE; fill-opacity:0.4000; stroke:none;fill-rule:evenodd;"
d="M 183.7000,124.4500
183.7190,124.3543
183.7732,124.2732
183.8543,124.2190
183.9500,124.2000
185.0500,124.2000
185.1457,124.2190
185.2268,124.2732
185.2810,124.3543
185.3000,124.4500
185.3000,125.5500
185.2810,125.6457
185.2268,125.7268
185.1457,125.7810
185.0500,125.8000
183.9500,125.8000
183.8543,125.7810
183.7732,125.7268
183.7190,125.6457
183.7000,125.5500
Z" /> 
<circle cx="187.0000" cy="125.0000" r="0.8000" /> 
<path style="fill:#02FFEE; fill-opacity:0.4000; stroke:none;fill-rule:evenodd;"
d="M 125.2500,132.2925
125.2500,128.7925
128.7500,128.7925
128.7500,132.2925
Z" /> 
<path style="fill:#02FFEE; fill-opacity:0.4000; stroke:none;fill-rule:evenodd;"
d="M 119.5000,129.5425
119.5155,129.3908
119.5703,129.2255
119.6617,129.0773
119.7848,128.9542
119.9330,128.8628
120.0983,128.8080
120.2500,128.7925
121.7500,128.7925
121.9017,128.8080
122.0670,128.8628
122.2152,128.9542
122.3383,129.0773
122.4297,129.2255
122.4845,129.3908
122.5000,129.5425
122.5000,131.5425
122.4845,131.6942
122.4297,131.8595
122.3383,132.0077
122.2152,132.1308
122.0670,132.2222
121.9017,132.2770
121.7500,132.2925
120.2500,132.2925
120.0983,132.2770
119.9330,132.2222
119.7848,132.1308
119.6617,132.0077
119.5703,131.8595
119.5155,131.6942
119.5000,131.5425
Z" /> 
<path style="fill:#02FFEE; fill-opacity:0.4000; stroke:none;fill-rule:evenodd;"
d="M 122.2500,134.3675
122.2580,134.2494
122.3037,134.0658
122.3877,133.8963
122.5063,133.7488
122.6538,133.6302
122.8233,133.5462
123.0069,133.5005
123.1250,133.4925
124.8750,133.4925
124.9931,133.5005
125.1767,133.5462
125.3462,133.6302
125.4937,133.7488
125.6123,133.8963
125.6963,134.0658
125.7420,134.2494
125.7500,134.3675
125.7500,136.1175
125.7420,136.2356
125.6963,136.4192
125.6123,136.5887
125.4937,136.7362
125.3462,136.8548
125.1767,136.9388
124.9931,136.9845
124.8750,136.9925
123.1250,136.9925
123.0069,136.9845
122.8233,136.9388
122.6538,136.8548
122.5063,136.7362
122.3877,136.5887
122.3037,136.4192
122.2580,136.2356
122.2500,136.1175
Z" /> 
<path style="fill:#02FFEE; fill-opacity:0.4000; stroke:none;fill-rule:evenodd;"
d="M 129.3000,143.2000
129.3000,141.8000
130.7000,141.8000
130.7000,143.2000
Z" /> 
</g>
<g style="fill:#02FFEE; fill-opacity:0.4000; stroke:none;">
<circle cx="132.5400" cy="143.7700" r="0.7000" /> 
</g>
<g style="fill:#02FFEE; fill-opacity:0.4000; stroke:none;">
<circle cx="130.0000" cy="145.0400" r="0.7000" /> 
</g>
<g style="fill:#02FFEE; fill-opacity:0.4000; stroke:none;">
<circle cx="132.5400" cy="146.3100" r="0.7000" /> 
</g>
<g style="fill:#02FFEE; fill-opacity:0.4000; stroke:none;">
<circle cx="130.0000" cy="147.5800" r="0.7000" /> 
</g>
<g style="fill:#02FFEE; fill-opacity:0.4000; stroke:none;">
<circle cx="132.5400" cy="148.8500" r="0.7000" /> 
</g>
<g style="fill:#02FFEE; fill-opacity:0.4000; stroke:none;">
<circle cx="130.0000" cy="150.1200" r="0.7000" /> 
</g>
<g style="fill:#02FFEE; fill-opacity:0.4000; stroke:none;">
<circle cx="132.5400" cy="151.3900" r="0.7000" /> 
</g>
<g style="fill:#02FFEE; fill-opacity:0.4000; stroke:none;">
<circle cx="123.6500" cy="141.2300" r="0.8125" /> 
</g>
<g style="fill:#02FFEE; fill-opacity:0.4000; stroke:none;">
<circle cx="123.6500" cy="152.6600" r="0.8125" /> 
<path style="fill:#02FFEE; fill-opacity:0.4000; stroke:none;fill-rule:evenodd;"
d="M 157.0500,108.7000
157.1457,108.7190
157.2268,108.7732
157.2810,108.8543
157.3000,108.9500
157.3000,110.0500
157.2810,110.1457
157.2268,110.2268
157.1457,110.2810
157.0500,110.3000
155.9500,110.3000
155.8543,110.2810
155.7732,110.2268
155.7190,110.1457
155.7000,110.0500
155.7000,108.9500
155.7190,108.8543
155.7732,108.7732
155.8543,108.7190
155.9500,108.7000
Z" /> 
</g>
<g style="fill:#02FFEE; fill-opacity:0.4000; stroke:none;">
<circle cx="151.5000" cy="109.5000" r="0.8000" /> 
</g>
<g style="fill:#02FFEE; fill-opacity:0.4000; stroke:none;">
<circle cx="154.0000" cy="109.5000" r="0.8000" /> 
</g>
<g style="fill:#02FFEE; fill-opacity:0.4000; stroke:none;">
<circle cx="156.5000" cy="124.0000" r="0.8000" /> 
</g>
<g style="fill:#02FFEE; fill-opacity:0.4000; stroke:none;">
<circle cx="151.5000" cy="124.0000" r="0.8000" /> 
</g>
<g style="fill:none; 
stroke:#02FFEE; stroke-width:3.0000; stroke-opacity:1; 
stroke-linecap:round; stroke-linejoin:round;">
<path d="M159.6000 116.4500
L159.6000 117.5500
" />
<path d="M148.4000 116.4500
L148.4000 117.5500
" />
<path style="fill:#02FFEE; fill-opacity:0.4000; stroke:none;fill-rule:evenodd;"
d="M 130.6323,161.2500
130.6514,161.1543
130.7055,161.0732
130.7867,161.0190
130.8823,161.0000
132.3823,161.0000
132.4780,161.0190
132.5591,161.0732
132.6133,161.1543
132.6323,161.2500
132.6323,162.7500
132.6133,162.8457
132.5591,162.9268
132.4780,162.9810
132.3823,163.0000
130.8823,163.0000
130.7867,162.9810
130.7055,162.9268
130.6514,162.8457
130.6323,162.7500
Z" /> 
</g>
<g style="fill:#02FFEE; fill-opacity:0.4000; stroke:none;">
<circle cx="136.6323" cy="162.0000" r="1.0000" /> 
</g>
<g style="fill:#02FFEE; fill-opacity:0.4000; stroke:none;">
<circle cx="141.9950" cy="145.9600" r="0.7200" /> 
</g>
<g style="fill:#02FFEE; fill-opacity:0.4000; stroke:none;">
<circle cx="141.9950" cy="148.5000" r="0.7200" /> 
</g>
<g style="fill:#02FFEE; fill-opacity:0.4000; stroke:none;">
<circle cx="141.9950" cy="151.0400" r="0.7200" /> 
<path style="fill:#02FFEE; fill-opacity:0.4000; stroke:none;fill-rule:evenodd;"
d="M 183.7000,113.9500
183.7190,113.8543
183.7732,113.7732
183.8543,113.7190
183.9500,113.7000
185.0500,113.7000
185.1457,113.7190
185.2268,113.7732
185.2810,113.8543
185.3000,113.9500
185.3000,115.0500
185.2810,115.1457
185.2268,115.2268
185.1457,115.2810
185.0500,115.3000
183.9500,115.3000
183.8543,115.2810
183.7732,115.2268
183.7190,115.1457
183.7000,115.0500
Z" /> 
</g>
<g style="fill:#02FFEE; fill-opacity:0.4000; stroke:none;">
<circle cx="187.0000" cy="114.5000" r="0.8000" /> 
<path style="fill:#02FFEE; fill-opacity:0.4000; stroke:none;fill-rule:evenodd;"
d="M 177.5500,143.1800
177.6457,143.1990
177.7268,143.2532
177.7810,143.3343
177.8000,143.4300
177.8000,145.3300
177.7810,145.4257
177.7268,145.5068
177.6457,145.5610
177.5500,145.5800
176.4500,145.5800
176.3543,145.5610
176.2732,145.5068
176.2190,145.4257
176.2000,145.3300
176.2000,143.4300
176.2190,143.3343
176.2732,143.2532
176.3543,143.1990
176.4500,143.1800
Z" /> 
</g>
<g style="fill:none; 
stroke:#02FFEE; stroke-width:1.6000; stroke-opacity:1; 
stroke-linecap:round; stroke-linejoin:round;">
<path d="M174.4600 143.9800
L174.4600 144.7800
" />
<path d="M171.9200 143.9800
L171.9200 144.7800
" />
<path d="M169.3800 143.9800
L169.3800 144.7800
" />
<path d="M169.3800 151.6000
L169.3800 152.4000
" />
<path d="M171.9200 151.6000
L171.9200 152.4000
" />
<path d="M174.4600 151.6000
L174.4600 152.4000
" />
<path d="M177.0000 151.6000
L177.0000 152.4000
" />
<path style="fill:#02FFEE; fill-opacity:0.4000; stroke:none;fill-rule:evenodd;"
d="M 120.5000,97.9000
122.5000,97.9000
122.5000,99.9000
120.5000,99.9000
Z" /> 
</g>
<g style="fill:#02FFEE; fill-opacity:0.4000; stroke:none;">
<circle cx="121.5000" cy="106.5000" r="1.0000" /> 
<path style="fill:#02FFEE; fill-opacity:0.4000; stroke:none;fill-rule:evenodd;"
d="M 154.4925,155.0550
154.4925,157.0550
152.5875,157.0550
152.5875,155.0550
Z" /> 
</g>
<g style="fill:none; 
stroke:#02FFEE; stroke-width:1.9050; stroke-opacity:1; 
stroke-linecap:round; stroke-linejoin:round;">
<path d="M151.0000 156.1025
L151.0000 156.0075
" />
<path d="M148.4600 156.1025
L148.4600 156.0075
" />
<path style="fill:#02FFEE; fill-opacity:0.4000; stroke:none;fill-rule:evenodd;"
d="M 131.2450,121.8900
131.2450,120.3900
132.2950,120.3900
132.2950,121.8900
Z" /> 
</g>
<g style="fill:none; 
stroke:#02FFEE; stroke-width:1.0500; stroke-opacity:1; 
stroke-linecap:round; stroke-linejoin:round;">
<path d="M133.0400 120.9150
L133.0400 121.3650
" />
<path d="M134.3100 120.9150
L134.3100 121.3650
" />
<path style="fill:#02FFEE; fill-opacity:0.4000; stroke:none;fill-rule:evenodd;"
d="M 121.2500,118.8677
121.1543,118.8486
121.0732,118.7945
121.0190,118.7133
121.0000,118.6177
121.0000,117.1177
121.0190,117.0220
121.0732,116.9409
121.1543,116.8867
121.2500,116.8677
122.7500,116.8677
122.8457,116.8867
122.9268,116.9409
122.9810,117.0220
123.0000,117.1177
123.0000,118.6177
122.9810,118.7133
122.9268,118.7945
122.8457,118.8486
122.7500,118.8677
Z" /> 
</g>
<g style="fill:#02FFEE; fill-opacity:0.4000; stroke:none;">
<circle cx="122.0000" cy="112.8677" r="1.0000" /> 
</g> 
</svg>
