<?xml version="1.0" standalone="no"?>
 <!DOCTYPE svg PUBLIC "-//W3C//DTD SVG 1.1//EN" 
 "http://www.w3.org/Graphics/SVG/1.1/DTD/svg11.dtd"> 
<svg
  xmlns:svg="http://www.w3.org/2000/svg"
  xmlns="http://www.w3.org/2000/svg"
  xmlns:xlink="http://www.w3.org/1999/xlink"
  version="1.1"
  width="297.0022mm" height="210.0072mm" viewBox="0.0000 0.0000 297.0022 210.0072">
<title>SVG Image created as GitKop-F_Paste.svg date 2026/01/08 21:32:21 </title>
  <desc>Image generated by PCBNEW </desc>
<g style="fill:#000000; fill-opacity:1.0000;stroke:#000000; stroke-opacity:1.0000;
stroke-linecap:round; stroke-linejoin:round;"
 transform="translate(0 0) scale(1 1)">
<path style="fill:#B4A09A; fill-opacity:0.9000; stroke:none;fill-rule:evenodd;"
d="M 164.9000,128.6000
164.8810,128.6957
164.8268,128.7768
164.7457,128.8310
164.6500,128.8500
161.8500,128.8500
161.7543,128.8310
161.6732,128.7768
161.6190,128.6957
161.6000,128.6000
161.6000,127.4000
161.6190,127.3043
161.6732,127.2232
161.7543,127.1690
161.8500,127.1500
164.6500,127.1500
164.7457,127.1690
164.8268,127.2232
164.8810,127.3043
164.9000,127.4000
Z" /> 
<path style="fill:#B4A09A; fill-opacity:0.9000; stroke:none;fill-rule:evenodd;"
d="M 159.4000,128.6000
159.3810,128.6957
159.3268,128.7768
159.2457,128.8310
159.1500,128.8500
156.3500,128.8500
156.2543,128.8310
156.1732,128.7768
156.1190,128.6957
156.1000,128.6000
156.1000,127.4000
156.1190,127.3043
156.1732,127.2232
156.2543,127.1690
156.3500,127.1500
159.1500,127.1500
159.2457,127.1690
159.3268,127.2232
159.3810,127.3043
159.4000,127.4000
Z" /> 
<path style="fill:#B4A09A; fill-opacity:0.9000; stroke:none;fill-rule:evenodd;"
d="M 158.6850,156.2000
158.5893,156.1810
158.5082,156.1268
158.4540,156.0457
158.4350,155.9500
158.4350,155.1500
158.4540,155.0543
158.5082,154.9732
158.5893,154.9190
158.6850,154.9000
159.9350,154.9000
160.0307,154.9190
160.1118,154.9732
160.1660,155.0543
160.1850,155.1500
160.1850,155.9500
160.1660,156.0457
160.1118,156.1268
160.0307,156.1810
159.9350,156.2000
Z" /> 
<path style="fill:#B4A09A; fill-opacity:0.9000; stroke:none;fill-rule:evenodd;"
d="M 158.6850,153.1000
158.5893,153.0810
158.5082,153.0268
158.4540,152.9457
158.4350,152.8500
158.4350,152.0500
158.4540,151.9543
158.5082,151.8732
158.5893,151.8190
158.6850,151.8000
159.9350,151.8000
160.0307,151.8190
160.1118,151.8732
160.1660,151.9543
160.1850,152.0500
160.1850,152.8500
160.1660,152.9457
160.1118,153.0268
160.0307,153.0810
159.9350,153.1000
Z" /> 
<path style="fill:#B4A09A; fill-opacity:0.9000; stroke:none;fill-rule:evenodd;"
d="M 131.3750,129.2000
131.2793,129.1810
131.1982,129.1268
131.1440,129.0457
131.1250,128.9500
131.1250,128.1500
131.1440,128.0543
131.1982,127.9732
131.2793,127.9190
131.3750,127.9000
132.6250,127.9000
132.7207,127.9190
132.8018,127.9732
132.8560,128.0543
132.8750,128.1500
132.8750,128.9500
132.8560,129.0457
132.8018,129.1268
132.7207,129.1810
132.6250,129.2000
Z" /> 
<path style="fill:#B4A09A; fill-opacity:0.9000; stroke:none;fill-rule:evenodd;"
d="M 131.3750,126.1000
131.2793,126.0810
131.1982,126.0268
131.1440,125.9457
131.1250,125.8500
131.1250,125.0500
131.1440,124.9543
131.1982,124.8732
131.2793,124.8190
131.3750,124.8000
132.6250,124.8000
132.7207,124.8190
132.8018,124.8732
132.8560,124.9543
132.8750,125.0500
132.8750,125.8500
132.8560,125.9457
132.8018,126.0268
132.7207,126.0810
132.6250,126.1000
Z" /> 
<path style="fill:#B4A09A; fill-opacity:0.9000; stroke:none;fill-rule:evenodd;"
d="M 136.8750,149.7000
136.7793,149.6810
136.6982,149.6268
136.6440,149.5457
136.6250,149.4500
136.6250,148.6500
136.6440,148.5543
136.6982,148.4732
136.7793,148.4190
136.8750,148.4000
138.1250,148.4000
138.2207,148.4190
138.3018,148.4732
138.3560,148.5543
138.3750,148.6500
138.3750,149.4500
138.3560,149.5457
138.3018,149.6268
138.2207,149.6810
138.1250,149.7000
Z" /> 
<path style="fill:#B4A09A; fill-opacity:0.9000; stroke:none;fill-rule:evenodd;"
d="M 136.8750,146.6000
136.7793,146.5810
136.6982,146.5268
136.6440,146.4457
136.6250,146.3500
136.6250,145.5500
136.6440,145.4543
136.6982,145.3732
136.7793,145.3190
136.8750,145.3000
138.1250,145.3000
138.2207,145.3190
138.3018,145.3732
138.3560,145.4543
138.3750,145.5500
138.3750,146.3500
138.3560,146.4457
138.3018,146.5268
138.2207,146.5810
138.1250,146.6000
Z" /> 
<path style="fill:#B4A09A; fill-opacity:0.9000; stroke:none;fill-rule:evenodd;"
d="M 142.7125,127.8750
142.7315,127.7793
142.7857,127.6982
142.8668,127.6440
142.9625,127.6250
143.7625,127.6250
143.8582,127.6440
143.9393,127.6982
143.9935,127.7793
144.0125,127.8750
144.0125,129.1250
143.9935,129.2207
143.9393,129.3018
143.8582,129.3560
143.7625,129.3750
142.9625,129.3750
142.8668,129.3560
142.7857,129.3018
142.7315,129.2207
142.7125,129.1250
Z" /> 
<path style="fill:#B4A09A; fill-opacity:0.9000; stroke:none;fill-rule:evenodd;"
d="M 145.8125,127.8750
145.8315,127.7793
145.8857,127.6982
145.9668,127.6440
146.0625,127.6250
146.8625,127.6250
146.9582,127.6440
147.0393,127.6982
147.0935,127.7793
147.1125,127.8750
147.1125,129.1250
147.0935,129.2207
147.0393,129.3018
146.9582,129.3560
146.8625,129.3750
146.0625,129.3750
145.9668,129.3560
145.8857,129.3018
145.8315,129.2207
145.8125,129.1250
Z" /> 
<path style="fill:#B4A09A; fill-opacity:0.9000; stroke:none;fill-rule:evenodd;"
d="M 138.6250,112.7500
138.7207,112.7690
138.8018,112.8232
138.8560,112.9043
138.8750,113.0000
138.8750,113.8000
138.8560,113.8957
138.8018,113.9768
138.7207,114.0310
138.6250,114.0500
137.3750,114.0500
137.2793,114.0310
137.1982,113.9768
137.1440,113.8957
137.1250,113.8000
137.1250,113.0000
137.1440,112.9043
137.1982,112.8232
137.2793,112.7690
137.3750,112.7500
Z" /> 
<path style="fill:#B4A09A; fill-opacity:0.9000; stroke:none;fill-rule:evenodd;"
d="M 138.6250,115.8500
138.7207,115.8690
138.8018,115.9232
138.8560,116.0043
138.8750,116.1000
138.8750,116.9000
138.8560,116.9957
138.8018,117.0768
138.7207,117.1310
138.6250,117.1500
137.3750,117.1500
137.2793,117.1310
137.1982,117.0768
137.1440,116.9957
137.1250,116.9000
137.1250,116.1000
137.1440,116.0043
137.1982,115.9232
137.2793,115.8690
137.3750,115.8500
Z" /> 
<path style="fill:#B4A09A; fill-opacity:0.9000; stroke:none;fill-rule:evenodd;"
d="M 158.6850,143.2000
158.5893,143.1810
158.5082,143.1268
158.4540,143.0457
158.4350,142.9500
158.4350,142.1500
158.4540,142.0543
158.5082,141.9732
158.5893,141.9190
158.6850,141.9000
159.9350,141.9000
160.0307,141.9190
160.1118,141.9732
160.1660,142.0543
160.1850,142.1500
160.1850,142.9500
160.1660,143.0457
160.1118,143.1268
160.0307,143.1810
159.9350,143.2000
Z" /> 
<path style="fill:#B4A09A; fill-opacity:0.9000; stroke:none;fill-rule:evenodd;"
d="M 158.6850,140.1000
158.5893,140.0810
158.5082,140.0268
158.4540,139.9457
158.4350,139.8500
158.4350,139.0500
158.4540,138.9543
158.5082,138.8732
158.5893,138.8190
158.6850,138.8000
159.9350,138.8000
160.0307,138.8190
160.1118,138.8732
160.1660,138.9543
160.1850,139.0500
160.1850,139.8500
160.1660,139.9457
160.1118,140.0268
160.0307,140.0810
159.9350,140.1000
Z" /> 
<path style="fill:#B4A09A; fill-opacity:0.9000; stroke:none;fill-rule:evenodd;"
d="M 182.3750,147.2500
182.2793,147.2310
182.1982,147.1768
182.1440,147.0957
182.1250,147.0000
182.1250,146.2000
182.1440,146.1043
182.1982,146.0232
182.2793,145.9690
182.3750,145.9500
183.6250,145.9500
183.7207,145.9690
183.8018,146.0232
183.8560,146.1043
183.8750,146.2000
183.8750,147.0000
183.8560,147.0957
183.8018,147.1768
183.7207,147.2310
183.6250,147.2500
Z" /> 
<path style="fill:#B4A09A; fill-opacity:0.9000; stroke:none;fill-rule:evenodd;"
d="M 182.3750,144.1500
182.2793,144.1310
182.1982,144.0768
182.1440,143.9957
182.1250,143.9000
182.1250,143.1000
182.1440,143.0043
182.1982,142.9232
182.2793,142.8690
182.3750,142.8500
183.6250,142.8500
183.7207,142.8690
183.8018,142.9232
183.8560,143.0043
183.8750,143.1000
183.8750,143.9000
183.8560,143.9957
183.8018,144.0768
183.7207,144.1310
183.6250,144.1500
Z" /> 
<path style="fill:#B4A09A; fill-opacity:0.9000; stroke:none;fill-rule:evenodd;"
d="M 135.1900,115.2650
135.1710,115.3607
135.1168,115.4418
135.0357,115.4960
134.9400,115.5150
134.1400,115.5150
134.0443,115.4960
133.9632,115.4418
133.9090,115.3607
133.8900,115.2650
133.8900,114.0150
133.9090,113.9193
133.9632,113.8382
134.0443,113.7840
134.1400,113.7650
134.9400,113.7650
135.0357,113.7840
135.1168,113.8382
135.1710,113.9193
135.1900,114.0150
Z" /> 
<path style="fill:#B4A09A; fill-opacity:0.9000; stroke:none;fill-rule:evenodd;"
d="M 132.0900,115.2650
132.0710,115.3607
132.0168,115.4418
131.9357,115.4960
131.8400,115.5150
131.0400,115.5150
130.9443,115.4960
130.8632,115.4418
130.8090,115.3607
130.7900,115.2650
130.7900,114.0150
130.8090,113.9193
130.8632,113.8382
130.9443,113.7840
131.0400,113.7650
131.8400,113.7650
131.9357,113.7840
132.0168,113.8382
132.0710,113.9193
132.0900,114.0150
Z" /> 
<path style="fill:#B4A09A; fill-opacity:0.9000; stroke:none;fill-rule:evenodd;"
d="M 143.1650,110.8900
143.2607,110.9090
143.3418,110.9632
143.3960,111.0443
143.4150,111.1400
143.4150,111.9400
143.3960,112.0357
143.3418,112.1168
143.2607,112.1710
143.1650,112.1900
141.9150,112.1900
141.8193,112.1710
141.7382,112.1168
141.6840,112.0357
141.6650,111.9400
141.6650,111.1400
141.6840,111.0443
141.7382,110.9632
141.8193,110.9090
141.9150,110.8900
Z" /> 
<path style="fill:#B4A09A; fill-opacity:0.9000; stroke:none;fill-rule:evenodd;"
d="M 143.1650,113.9900
143.2607,114.0090
143.3418,114.0632
143.3960,114.1443
143.4150,114.2400
143.4150,115.0400
143.3960,115.1357
143.3418,115.2168
143.2607,115.2710
143.1650,115.2900
141.9150,115.2900
141.8193,115.2710
141.7382,115.2168
141.6840,115.1357
141.6650,115.0400
141.6650,114.2400
141.6840,114.1443
141.7382,114.0632
141.8193,114.0090
141.9150,113.9900
Z" /> 
<path style="fill:#B4A09A; fill-opacity:0.9000; stroke:none;fill-rule:evenodd;"
d="M 151.9000,135.0675
151.8876,135.1297
151.8524,135.1824
151.7997,135.2176
151.7375,135.2300
150.4375,135.2300
150.3753,135.2176
150.3226,135.1824
150.2874,135.1297
150.2750,135.0675
150.2750,134.7425
150.2874,134.6803
150.3226,134.6276
150.3753,134.5924
150.4375,134.5800
151.7375,134.5800
151.7997,134.5924
151.8524,134.6276
151.8876,134.6803
151.9000,134.7425
Z" /> 
<path style="fill:#B4A09A; fill-opacity:0.9000; stroke:none;fill-rule:evenodd;"
d="M 151.9000,133.7975
151.8876,133.8597
151.8524,133.9124
151.7997,133.9476
151.7375,133.9600
150.4375,133.9600
150.3753,133.9476
150.3226,133.9124
150.2874,133.8597
150.2750,133.7975
150.2750,133.4725
150.2874,133.4103
150.3226,133.3576
150.3753,133.3224
150.4375,133.3100
151.7375,133.3100
151.7997,133.3224
151.8524,133.3576
151.8876,133.4103
151.9000,133.4725
Z" /> 
<path style="fill:#B4A09A; fill-opacity:0.9000; stroke:none;fill-rule:evenodd;"
d="M 151.9000,132.5275
151.8876,132.5897
151.8524,132.6424
151.7997,132.6776
151.7375,132.6900
150.4375,132.6900
150.3753,132.6776
150.3226,132.6424
150.2874,132.5897
150.2750,132.5275
150.2750,132.2025
150.2874,132.1403
150.3226,132.0876
150.3753,132.0524
150.4375,132.0400
151.7375,132.0400
151.7997,132.0524
151.8524,132.0876
151.8876,132.1403
151.9000,132.2025
Z" /> 
<path style="fill:#B4A09A; fill-opacity:0.9000; stroke:none;fill-rule:evenodd;"
d="M 151.9000,131.2575
151.8876,131.3197
151.8524,131.3724
151.7997,131.4076
151.7375,131.4200
150.4375,131.4200
150.3753,131.4076
150.3226,131.3724
150.2874,131.3197
150.2750,131.2575
150.2750,130.9325
150.2874,130.8703
150.3226,130.8176
150.3753,130.7824
150.4375,130.7700
151.7375,130.7700
151.7997,130.7824
151.8524,130.8176
151.8876,130.8703
151.9000,130.9325
Z" /> 
<path style="fill:#B4A09A; fill-opacity:0.9000; stroke:none;fill-rule:evenodd;"
d="M 144.7250,131.2575
144.7126,131.3197
144.6774,131.3724
144.6247,131.4076
144.5625,131.4200
143.2625,131.4200
143.2003,131.4076
143.1476,131.3724
143.1124,131.3197
143.1000,131.2575
143.1000,130.9325
143.1124,130.8703
143.1476,130.8176
143.2003,130.7824
143.2625,130.7700
144.5625,130.7700
144.6247,130.7824
144.6774,130.8176
144.7126,130.8703
144.7250,130.9325
Z" /> 
<path style="fill:#B4A09A; fill-opacity:0.9000; stroke:none;fill-rule:evenodd;"
d="M 144.7250,132.5275
144.7126,132.5897
144.6774,132.6424
144.6247,132.6776
144.5625,132.6900
143.2625,132.6900
143.2003,132.6776
143.1476,132.6424
143.1124,132.5897
143.1000,132.5275
143.1000,132.2025
143.1124,132.1403
143.1476,132.0876
143.2003,132.0524
143.2625,132.0400
144.5625,132.0400
144.6247,132.0524
144.6774,132.0876
144.7126,132.1403
144.7250,132.2025
Z" /> 
<path style="fill:#B4A09A; fill-opacity:0.9000; stroke:none;fill-rule:evenodd;"
d="M 144.7250,133.7975
144.7126,133.8597
144.6774,133.9124
144.6247,133.9476
144.5625,133.9600
143.2625,133.9600
143.2003,133.9476
143.1476,133.9124
143.1124,133.8597
143.1000,133.7975
143.1000,133.4725
143.1124,133.4103
143.1476,133.3576
143.2003,133.3224
143.2625,133.3100
144.5625,133.3100
144.6247,133.3224
144.6774,133.3576
144.7126,133.4103
144.7250,133.4725
Z" /> 
<path style="fill:#B4A09A; fill-opacity:0.9000; stroke:none;fill-rule:evenodd;"
d="M 144.7250,135.0675
144.7126,135.1297
144.6774,135.1824
144.6247,135.2176
144.5625,135.2300
143.2625,135.2300
143.2003,135.2176
143.1476,135.1824
143.1124,135.1297
143.1000,135.0675
143.1000,134.7425
143.1124,134.6803
143.1476,134.6276
143.2003,134.5924
143.2625,134.5800
144.5625,134.5800
144.6247,134.5924
144.6774,134.6276
144.7126,134.6803
144.7250,134.7425
Z" /> 
<path style="fill:#B4A09A; fill-opacity:0.9000; stroke:none;fill-rule:evenodd;"
d="M 178.3500,135.6250
178.3310,135.7207
178.2768,135.8018
178.1957,135.8560
178.1000,135.8750
177.3000,135.8750
177.2043,135.8560
177.1232,135.8018
177.0690,135.7207
177.0500,135.6250
177.0500,134.3750
177.0690,134.2793
177.1232,134.1982
177.2043,134.1440
177.3000,134.1250
178.1000,134.1250
178.1957,134.1440
178.2768,134.1982
178.3310,134.2793
178.3500,134.3750
Z" /> 
<path style="fill:#B4A09A; fill-opacity:0.9000; stroke:none;fill-rule:evenodd;"
d="M 175.2500,135.6250
175.2310,135.7207
175.1768,135.8018
175.0957,135.8560
175.0000,135.8750
174.2000,135.8750
174.1043,135.8560
174.0232,135.8018
173.9690,135.7207
173.9500,135.6250
173.9500,134.3750
173.9690,134.2793
174.0232,134.1982
174.1043,134.1440
174.2000,134.1250
175.0000,134.1250
175.0957,134.1440
175.1768,134.1982
175.2310,134.2793
175.2500,134.3750
Z" /> 
<path style="fill:#B4A09A; fill-opacity:0.9000; stroke:none;fill-rule:evenodd;"
d="M 174.0250,113.1250
174.0060,113.2207
173.9518,113.3018
173.8707,113.3560
173.7750,113.3750
171.2250,113.3750
171.1293,113.3560
171.0482,113.3018
170.9940,113.2207
170.9750,113.1250
170.9750,110.8750
170.9940,110.7793
171.0482,110.6982
171.1293,110.6440
171.2250,110.6250
173.7750,110.6250
173.8707,110.6440
173.9518,110.6982
174.0060,110.7793
174.0250,110.8750
Z" /> 
<path style="fill:#B4A09A; fill-opacity:0.9000; stroke:none;fill-rule:evenodd;"
d="M 174.0250,110.0750
174.0060,110.1707
173.9518,110.2518
173.8707,110.3060
173.7750,110.3250
171.2250,110.3250
171.1293,110.3060
171.0482,110.2518
170.9940,110.1707
170.9750,110.0750
170.9750,107.8250
170.9940,107.7293
171.0482,107.6482
171.1293,107.5940
171.2250,107.5750
173.7750,107.5750
173.8707,107.5940
173.9518,107.6482
174.0060,107.7293
174.0250,107.8250
Z" /> 
<path style="fill:#B4A09A; fill-opacity:0.9000; stroke:none;fill-rule:evenodd;"
d="M 170.6750,113.1250
170.6560,113.2207
170.6018,113.3018
170.5207,113.3560
170.4250,113.3750
167.8750,113.3750
167.7793,113.3560
167.6982,113.3018
167.6440,113.2207
167.6250,113.1250
167.6250,110.8750
167.6440,110.7793
167.6982,110.6982
167.7793,110.6440
167.8750,110.6250
170.4250,110.6250
170.5207,110.6440
170.6018,110.6982
170.6560,110.7793
170.6750,110.8750
Z" /> 
<path style="fill:#B4A09A; fill-opacity:0.9000; stroke:none;fill-rule:evenodd;"
d="M 170.6750,110.0750
170.6560,110.1707
170.6018,110.2518
170.5207,110.3060
170.4250,110.3250
167.8750,110.3250
167.7793,110.3060
167.6982,110.2518
167.6440,110.1707
167.6250,110.0750
167.6250,107.8250
167.6440,107.7293
167.6982,107.6482
167.7793,107.5940
167.8750,107.5750
170.4250,107.5750
170.5207,107.5940
170.6018,107.6482
170.6560,107.7293
170.6750,107.8250
Z" /> 
<path style="fill:#B4A09A; fill-opacity:0.9000; stroke:none;fill-rule:evenodd;"
d="M 178.2250,113.1050
178.2060,113.2007
178.1518,113.2818
178.0707,113.3360
177.9750,113.3550
176.2750,113.3550
176.1793,113.3360
176.0982,113.2818
176.0440,113.2007
176.0250,113.1050
176.0250,112.4050
176.0440,112.3093
176.0982,112.2282
176.1793,112.1740
176.2750,112.1550
177.9750,112.1550
178.0707,112.1740
178.1518,112.2282
178.2060,112.3093
178.2250,112.4050
Z" /> 
<path style="fill:#B4A09A; fill-opacity:0.9000; stroke:none;fill-rule:evenodd;"
d="M 178.2250,108.5450
178.2060,108.6407
178.1518,108.7218
178.0707,108.7760
177.9750,108.7950
176.2750,108.7950
176.1793,108.7760
176.0982,108.7218
176.0440,108.6407
176.0250,108.5450
176.0250,107.8450
176.0440,107.7493
176.0982,107.6682
176.1793,107.6140
176.2750,107.5950
177.9750,107.5950
178.0707,107.6140
178.1518,107.6682
178.2060,107.7493
178.2250,107.8450
Z" /> 
<path style="fill:#B4A09A; fill-opacity:0.9000; stroke:none;fill-rule:evenodd;"
d="M 172.2500,135.6250
172.2310,135.7207
172.1768,135.8018
172.0957,135.8560
172.0000,135.8750
171.2000,135.8750
171.1043,135.8560
171.0232,135.8018
170.9690,135.7207
170.9500,135.6250
170.9500,134.3750
170.9690,134.2793
171.0232,134.1982
171.1043,134.1440
171.2000,134.1250
172.0000,134.1250
172.0957,134.1440
172.1768,134.1982
172.2310,134.2793
172.2500,134.3750
Z" /> 
<path style="fill:#B4A09A; fill-opacity:0.9000; stroke:none;fill-rule:evenodd;"
d="M 169.1500,135.6250
169.1310,135.7207
169.0768,135.8018
168.9957,135.8560
168.9000,135.8750
168.1000,135.8750
168.0043,135.8560
167.9232,135.8018
167.8690,135.7207
167.8500,135.6250
167.8500,134.3750
167.8690,134.2793
167.9232,134.1982
168.0043,134.1440
168.1000,134.1250
168.9000,134.1250
168.9957,134.1440
169.0768,134.1982
169.1310,134.2793
169.1500,134.3750
Z" /> 
<path style="fill:#B4A09A; fill-opacity:0.9000; stroke:none;fill-rule:evenodd;"
d="M 148.3500,127.8750
148.3690,127.7793
148.4232,127.6982
148.5043,127.6440
148.6000,127.6250
149.4000,127.6250
149.4957,127.6440
149.5768,127.6982
149.6310,127.7793
149.6500,127.8750
149.6500,129.1250
149.6310,129.2207
149.5768,129.3018
149.4957,129.3560
149.4000,129.3750
148.6000,129.3750
148.5043,129.3560
148.4232,129.3018
148.3690,129.2207
148.3500,129.1250
Z" /> 
<path style="fill:#B4A09A; fill-opacity:0.9000; stroke:none;fill-rule:evenodd;"
d="M 151.4500,127.8750
151.4690,127.7793
151.5232,127.6982
151.6043,127.6440
151.7000,127.6250
152.5000,127.6250
152.5957,127.6440
152.6768,127.6982
152.7310,127.7793
152.7500,127.8750
152.7500,129.1250
152.7310,129.2207
152.6768,129.3018
152.5957,129.3560
152.5000,129.3750
151.7000,129.3750
151.6043,129.3560
151.5232,129.3018
151.4690,129.2207
151.4500,129.1250
Z" /> 
<path style="fill:#B4A09A; fill-opacity:0.9000; stroke:none;fill-rule:evenodd;"
d="M 158.6600,149.7250
158.5643,149.7060
158.4832,149.6518
158.4290,149.5707
158.4100,149.4750
158.4100,148.6500
158.4290,148.5543
158.4832,148.4732
158.5643,148.4190
158.6600,148.4000
159.9600,148.4000
160.0557,148.4190
160.1368,148.4732
160.1910,148.5543
160.2100,148.6500
160.2100,149.4750
160.1910,149.5707
160.1368,149.6518
160.0557,149.7060
159.9600,149.7250
Z" /> 
<path style="fill:#B4A09A; fill-opacity:0.9000; stroke:none;fill-rule:evenodd;"
d="M 158.6600,146.6000
158.5643,146.5810
158.4832,146.5268
158.4290,146.4457
158.4100,146.3500
158.4100,145.5250
158.4290,145.4293
158.4832,145.3482
158.5643,145.2940
158.6600,145.2750
159.9600,145.2750
160.0557,145.2940
160.1368,145.3482
160.1910,145.4293
160.2100,145.5250
160.2100,146.3500
160.1910,146.4457
160.1368,146.5268
160.0557,146.5810
159.9600,146.6000
Z" /> 
<path style="fill:#B4A09A; fill-opacity:0.9000; stroke:none;fill-rule:evenodd;"
d="M 183.6250,148.8500
183.7207,148.8690
183.8018,148.9232
183.8560,149.0043
183.8750,149.1000
183.8750,149.9000
183.8560,149.9957
183.8018,150.0768
183.7207,150.1310
183.6250,150.1500
182.3750,150.1500
182.2793,150.1310
182.1982,150.0768
182.1440,149.9957
182.1250,149.9000
182.1250,149.1000
182.1440,149.0043
182.1982,148.9232
182.2793,148.8690
182.3750,148.8500
Z" /> 
<path style="fill:#B4A09A; fill-opacity:0.9000; stroke:none;fill-rule:evenodd;"
d="M 183.6250,151.9500
183.7207,151.9690
183.8018,152.0232
183.8560,152.1043
183.8750,152.2000
183.8750,153.0000
183.8560,153.0957
183.8018,153.1768
183.7207,153.2310
183.6250,153.2500
182.3750,153.2500
182.2793,153.2310
182.1982,153.1768
182.1440,153.0957
182.1250,153.0000
182.1250,152.2000
182.1440,152.1043
182.1982,152.0232
182.2793,151.9690
182.3750,151.9500
Z" /> 
</g> 
</svg>
